PathFileType	4	(X/Y/Z)	./resultDataOpenSim/trcMotMarkerGrf/sub09/qtm-14-01.trc
DataRate	CameraRate	NumFrames	NumMarkers	Units	OrigDataRate	OrigDataStartFrame	OrigNumFrames
250.000000	250.000000	6	24	m	250.000000	1	507
Frame#	Time	L.Toe.Tip			R.Toe.Tip			L.Ankle.Lat			R.Ankle.Lat			L.Ankle.Med			R.Ankle.Med			L.Heel			R.Heel			L.Knee.Lat			R.Knee.Lat			L.Knee.Med			R.Knee.Med			L.Thigh.Upper			R.Thigh.Upper			L.ASIS			R.ASIS			V.Sacral			L.Acromium			R.Acromium			C7			L.Elbow			R.Elbow			L.Wrist.Lat			R.Wrist.Lat
		X1	Y1	Z1	X2	Y2	Z2	X3	Y3	Z3	X4	Y4	Z4	X5	Y5	Z5	X6	Y6	Z6	X7	Y7	Z7	X8	Y8	Z8	X9	Y9	Z9	X10	Y10	Z10	X11	Y11	Z11	X12	Y12	Z12	X13	Y13	Z13	X14	Y14	Z14	X15	Y15	Z15	X16	Y16	Z16	X17	Y17	Z17	X18	Y18	Z18	X19	Y19	Z19	X20	Y20	Z20	X21	Y21	Z21	X22	Y22	Z22	X23	Y23	Z23	X24	Y24	Z24

1	0	-1.5355142	0.036646278	-0.015777927	-0.87954208	0.1152092	0.080273998	-1.6801894	0.092884937	-0.041236981	-1.0288893	0.079100021	0.10233749	-1.6478913	0.10449388	0.051165726	-1.0194354	0.12453444	0.014331632	NaN	NaN	NaN	-1.0721065	0.036569285	0.042449902	-1.5115632	0.47556816	-0.11000104	-1.1436767	0.52261978	0.15976893	-1.5022809	0.47514546	0.014927132	-1.1436116	0.50637125	0.032300043	-1.3962999	0.87754591	-0.16192973	-1.3493845	0.87468463	0.20553874	-1.2858918	0.9495001	-0.11748226	-1.2669708	0.96043232	0.12522724	-1.4418117	1.0142766	0.023500782	-1.2468294	1.403823	-0.1544644	-1.2814632	1.4188344	0.1724305	-1.3257142	1.4656485	0.0049551772	-1.3443104	1.0354323	-0.22227657	-1.4574731	1.1063918	0.25386556	-1.0882321	0.94234849	-0.19454524	-1.3796519	0.8504444	0.30079166
2	0.004	-1.5367602	0.036170967	-0.014765399	-0.86518532	0.11937334	0.080800119	-1.679621	0.094056192	-0.04142246	-1.0137859	0.080001027	0.10200509	-1.64724	0.10531753	0.050970965	-1.0048336	0.12574631	0.014149905	NaN	NaN	NaN	-1.0563608	0.03604309	0.043610617	-1.5085233	0.4755964	-0.11006057	-1.1377132	0.52082412	0.15968003	-1.4986962	0.47511773	0.014800315	-1.1373513	0.50496495	0.03200791	-1.390972	0.87670603	-0.1616742	-1.3427127	0.87305311	0.20563308	-1.2801682	0.94830252	-0.11773821	-1.2602184	0.95910208	0.12511981	-1.4355604	1.0132998	0.024054069	-1.2411084	1.4028094	-0.15424707	-1.275366	1.4175149	0.17266013	-1.3200977	1.4644494	0.0051686304	-1.3374342	1.0340575	-0.22207065	-1.4515467	1.1051695	0.25340624	-1.0807875	0.94258876	-0.19413394	-1.3739761	0.84905886	0.30071423
3	0.008	-1.5376026	0.035830199	-0.013969462	-0.85112943	0.12343089	0.081292286	-1.6790223	0.095223802	-0.041628259	-0.9988857	0.080967505	0.10172812	-1.6465611	0.10624	0.05071452	-0.99063236	0.12698791	0.013962988	NaN	NaN	NaN	-1.0408273	0.035827702	0.044266004	-1.5053787	0.47560751	-0.11014752	-1.1317792	0.51907598	0.15958391	-1.4951339	0.47506235	0.01467853	-1.131091	0.50355693	0.031722091	-1.3856123	0.87585427	-0.16139676	-1.336036	0.87142334	0.20567411	-1.2744054	0.94711496	-0.11797916	-1.2534231	0.95776057	0.1249874	-1.4293349	1.0121735	0.024609168	-1.2353584	1.4017956	-0.1540339	-1.2692459	1.416194	0.17288556	-1.314453	1.4632825	0.0053839959	-1.3305655	1.0327157	-0.2218583	-1.4450505	1.1040466	0.25340477	-1.0733698	0.94280601	-0.19373972	-1.3681888	0.84767214	0.30063209
4	0.012	-1.5377216	0.035740452	-0.013661277	-0.83756027	0.12731227	0.081688234	-1.678389	0.096409286	-0.041863328	-0.98409124	0.082122335	0.10161144	-1.6458099	0.10726513	0.050376295	-0.9770041	0.12825508	0.013759049	NaN	NaN	NaN	-1.0256956	0.035966957	0.044343893	-1.5021072	0.47559236	-0.11024474	-1.1257996	0.51740544	0.15949106	-1.4915329	0.47496729	0.014561004	-1.124812	0.5021552	0.031451896	-1.3802011	0.87500282	-0.16109479	-1.329286	0.86979533	0.20565975	-1.268579	0.94594443	-0.11820183	-1.2465761	0.95640764	0.12482466	-1.4231133	1.0109306	0.025177997	-1.2295527	1.4007796	-0.15382597	-1.2630604	1.4148679	0.17309925	-1.3087177	1.4621509	0.0055981187	-1.3237011	1.0314187	-0.22164779	-1.4377856	1.1029484	0.25423298	-1.0659896	0.9429884	-0.19337056	-1.3622653	0.84628234	0.30054097
5	0.016	-1.5372375	0.035870678	-0.013876092	-0.82456565	0.13096784	0.081916224	-1.6777273	0.097638035	-0.042134118	-0.96924019	0.083545935	0.10171406	-1.644848	0.10827534	0.049984642	-0.96395064	0.12951859	0.013519505	NaN	NaN	NaN	-1.0111268	0.036307172	0.044088987	-1.4987841	0.47554787	-0.11028197	-1.1196724	0.51582108	0.15941062	-1.4878203	0.47483521	0.014443268	-1.1185058	0.50077383	0.031208169	-1.374741	0.87416811	-0.16077825	-1.3222927	0.86817546	0.20565833	-1.2626993	0.94480095	-0.11841742	-1.2397025	0.95505151	0.12463948	-1.4168897	1.0096819	0.025772146	-1.2236936	1.3997633	-0.15362664	-1.2568081	1.413541	0.17330767	-1.3028655	1.4610278	0.0058142986	-1.3168475	1.0301631	-0.22145966	-1.4301781	1.1017262	0.2556989	-1.0586567	0.94312788	-0.19302511	-1.3562502	0.84489054	0.30043766
6	0.02	-1.5365499	0.036081563	-0.014384228	-0.81217071	0.13434409	0.081957035	-1.6770108	0.098918463	-0.042462284	-0.95462311	0.085098869	0.1018687	-1.6434786	0.10912506	0.049580768	-0.95140628	0.13075355	0.013230896	NaN	NaN	NaN	-0.9972113	0.036700194	0.04371223	-1.4954837	0.47546778	-0.11019442	-1.1133478	0.51432893	0.15934568	-1.4839755	0.47467001	0.014317784	-1.1121638	0.49942379	0.031003779	-1.3692318	0.87335069	-0.16045493	-1.3149444	0.86657664	0.20573045	-1.2567851	0.94369516	-0.11864407	-1.2328131	0.95370028	0.1244372	-1.4106901	1.0084718	0.026399229	-1.2178002	1.3987537	-0.15343656	-1.2505204	1.412218	0.17352842	-1.2969441	1.4598585	0.0059961858	-1.3100113	1.028941	-0.22130684	-1.4229013	1.1003741	0.25705156	-1.0513724	0.94321052	-0.19269645	-1.3501705	0.84349722	0.30032375
